<svg id="visual" viewBox="0 0 960 300" width="960" height="300" xmlns="http://www.w3.org/2000/svg" xmlns:xlink="http://www.w3.org/1999/xlink" version="1.1"><path d="M0 20L32 17.5C64 15 128 10 192 13.7C256 17.3 320 29.7 384 48.3C448 67 512 92 576 99.8C640 107.7 704 98.3 768 87.8C832 77.3 896 65.7 928 59.8L960 54L960 301L928 301C896 301 832 301 768 301C704 301 640 301 576 301C512 301 448 301 384 301C320 301 256 301 192 301C128 301 64 301 32 301L0 301Z" fill="#f1f1f1" stroke-linecap="round" stroke-linejoin="miter"></path></svg>